HIERARCHY
ROOT hip
{
  OFFSET 0 0 0
  CHANNELS 6 Xposition Yposition Zposition Zrotation Yrotation Xrotation
  JOINT abdomen
  {
    OFFSET 0 20.6881 -0.73152
    CHANNELS 3 Zrotation Xrotation Yrotation
    JOINT chest
    {
      OFFSET 0 11.7043 -0.48768
      CHANNELS 3 Zrotation Xrotation Yrotation
      JOINT neck
      {
        OFFSET 0 22.1894 -2.19456
        CHANNELS 3 Zrotation Xrotation Yrotation
        JOINT head
        {
          OFFSET -0.24384 7.07133 1.2192
          CHANNELS 3 Zrotation Xrotation Yrotation
          JOINT leftEye
          {
            OFFSET 4.14528 8.04674 8.04672
            CHANNELS 3 Zrotation Xrotation Yrotation
            End Site
            {
              OFFSET 1 0 0
            }
          }
          JOINT rightEye
          {
            OFFSET -3.6576 8.04674 8.04672
            CHANNELS 3 Zrotation Xrotation Yrotation
            End Site
            {
              OFFSET 1 0 0
            }
          }
        }
      }
      JOINT rCollar
      {
        OFFSET -2.68224 19.2634 -4.8768
        CHANNELS 3 Zrotation Xrotation Yrotation
        JOINT rShldr
        {
          OFFSET -8.77824 -1.95073 1.46304
          CHANNELS 3 Zrotation Xrotation Yrotation
          JOINT rForeArm
          {
            OFFSET -28.1742 -1.7115 0.48768
            CHANNELS 3 Zrotation Xrotation Yrotation
            JOINT rHand
            {
              OFFSET -22.5879 0.773209 7.07136
              CHANNELS 3 Zrotation Xrotation Yrotation
              JOINT rThumb1
              {
                OFFSET -1.2192 -0.487915 3.41376
                CHANNELS 3 Zrotation Xrotation Yrotation
                JOINT rThumb2
                {
                  OFFSET -3.37035 -0.52449 3.41376
                  CHANNELS 3 Zrotation Xrotation Yrotation
                  End Site
                  {
                    OFFSET -1.78271 -1.18214 1.43049
                  }
                }
              }
              JOINT rIndex1
              {
                OFFSET -7.75947 0.938293 5.60832
                CHANNELS 3 Zrotation Xrotation Yrotation
                JOINT rIndex2
                {
                  OFFSET -2.54057 -0.884171 1.56538
                  CHANNELS 3 Zrotation Xrotation Yrotation
                  End Site
                  {
                    OFFSET -1.62519 -0.234802 1.16502
                  }
                }
              }
              JOINT rMid1
              {
                OFFSET -8.24714 1.18213 3.41376
                CHANNELS 3 Zrotation Xrotation Yrotation
                JOINT rMid2
                {
                  OFFSET -3.10165 -0.590103 1.0647
                  CHANNELS 3 Zrotation Xrotation Yrotation
                  End Site
                  {
                    OFFSET -2.48547 -0.328903 0.83742
                  }
                }
              }
              JOINT rRing1
              {
                OFFSET -8.82822 0.546677 1.51678
                CHANNELS 3 Zrotation Xrotation Yrotation
                JOINT rRing2
                {
                  OFFSET -2.60934 -0.819778 -0.0198488
                  CHANNELS 3 Zrotation Xrotation Yrotation
                  End Site
                  {
                    OFFSET -2.33842 -0.294052 0.168128
                  }
                }
              }
              JOINT rPinky1
              {
                OFFSET -8.27202 -0.0477905 -0.4584
                CHANNELS 3 Zrotation Xrotation Yrotation
                JOINT rPinky2
                {
                  OFFSET -1.82734 -0.647385 -0.700984
                  CHANNELS 3 Zrotation Xrotation Yrotation
                  End Site
                  {
                    OFFSET -1.69225 -0.51767 -0.607171
                  }
                }
              }
            }
          }
        }
      }
      JOINT lCollar
      {
        OFFSET 2.68224 19.2634 -4.8768
        CHANNELS 3 Zrotation Xrotation Yrotation
        JOINT lShldr
        {
          OFFSET 8.77824 -1.95073 1.46304
          CHANNELS 3 Zrotation Xrotation Yrotation
          JOINT lForeArm
          {
            OFFSET 28.1742 -1.7115 0.48768
            CHANNELS 3 Zrotation Xrotation Yrotation
            JOINT lHand
            {
              OFFSET 22.5879 0.773209 7.07136
              CHANNELS 3 Zrotation Xrotation Yrotation
              JOINT lThumb1
              {
                OFFSET 1.2192 -0.487915 3.41376
                CHANNELS 3 Zrotation Xrotation Yrotation
                JOINT lThumb2
                {
                  OFFSET 3.37035 -0.52449 3.41376
                  CHANNELS 3 Zrotation Xrotation Yrotation
                  End Site
                  {
                    OFFSET 1.78271 -1.18214 1.43049
                  }
                }
              }
              JOINT lIndex1
              {
                OFFSET 7.75947 0.938293 5.60832
                CHANNELS 3 Zrotation Xrotation Yrotation
                JOINT lIndex2
                {
                  OFFSET 2.54057 -0.884171 1.56538
                  CHANNELS 3 Zrotation Xrotation Yrotation
                  End Site
                  {
                    OFFSET 1.62519 -0.234802 1.16502
                  }
                }
              }
              JOINT lMid1
              {
                OFFSET 8.24714 1.18213 3.41376
                CHANNELS 3 Zrotation Xrotation Yrotation
                JOINT lMid2
                {
                  OFFSET 3.10165 -0.590103 1.0647
                  CHANNELS 3 Zrotation Xrotation Yrotation
                  End Site
                  {
                    OFFSET 2.48547 -0.328903 0.83742
                  }
                }
              }
              JOINT lRing1
              {
                OFFSET 8.82822 0.546677 1.51678
                CHANNELS 3 Zrotation Xrotation Yrotation
                JOINT lRing2
                {
                  OFFSET 2.60934 -0.819778 -0.0198488
                  CHANNELS 3 Zrotation Xrotation Yrotation
                  End Site
                  {
                    OFFSET 2.33842 -0.294052 0.168128
                  }
                }
              }
              JOINT lPinky1
              {
                OFFSET 8.27202 -0.0477905 -0.4584
                CHANNELS 3 Zrotation Xrotation Yrotation
                JOINT lPinky2
                {
                  OFFSET 1.82734 -0.647385 -0.700984
                  CHANNELS 3 Zrotation Xrotation Yrotation
                  End Site
                  {
                    OFFSET 1.69225 -0.51767 -0.607171
                  }
                }
              }
            }
          }
        }
      }
    }
  }
  JOINT rButtock
  {
    OFFSET -8.77824 4.35084 1.2192
    CHANNELS 3 Zrotation Xrotation Yrotation
    JOINT rThigh
    {
      OFFSET 0 -1.70687 -2.19456
      CHANNELS 3 Zrotation Xrotation Yrotation
      JOINT rShin
      {
        OFFSET 0 -36.8199 0.73152
        CHANNELS 3 Zrotation Xrotation Yrotation
        JOINT rFoot
        {
          OFFSET 0.73152 -45.1104 -5.12064
          CHANNELS 3 Zrotation Xrotation Yrotation
          End Site
          {
            OFFSET -1.1221 -3.69964 12.103
          }
        }
      }
    }
  }
  JOINT lButtock
  {
    OFFSET 8.77824 4.35084 1.2192
    CHANNELS 3 Zrotation Xrotation Yrotation
    JOINT lThigh
    {
      OFFSET 0 -1.70687 -2.19456
      CHANNELS 3 Zrotation Xrotation Yrotation
      JOINT lShin
      {
        OFFSET 0 -36.8199 0.73152
        CHANNELS 3 Zrotation Xrotation Yrotation
        JOINT lFoot
        {
          OFFSET -0.73152 -45.1104 -5.12064
          CHANNELS 3 Zrotation Xrotation Yrotation
          End Site
          {
            OFFSET 1.1221 -3.69964 12.103
          }
        }
      }
    }
  }
}
MOTION
Frames:	4
Frame Time:	0.00833333
-153.776 85.2982 16.5817 0.0 0.0 0.0 0.984358 -0.00436092 0.0272515 0.271546 -0.00455342 0.0470447 -6.48491e-15 -2.38542e-15 -1.62022e-23 -1.96082e-14 -6.36111e-15 -3.57191e-17 -0.0 0.0 0.0 -0.0 0.0 0.0 -3.43034e-15 2.40716e-17 1.49089e-16 -6.48557e-14 2.23633e-16 5.96354e-16 -1.1609e-12 3.6318e-13 6.36111e-15 -1.3324e-11 -2.75317e-13 -5.40694e-14 -3.14219e-11 1.91345e-13 -7.31528e-14 -5.42694e-11 3.27597e-13 -1.36764e-13 -3.14143e-11 1.94411e-13 -8.5875e-14 7.73091 5.47488 0.417314 -3.14224e-11 1.91231e-13 -6.99722e-14 2.90554 0.965183 0.102902 -3.14183e-11 1.91231e-13 -7.55382e-14 10.2786 0.731801 0.0259123 -3.14249e-11 1.92424e-13 -7.31528e-14 2.22167 -0.733487 -0.20892 -3.32857e-15 2.44598e-17 -1.49089e-16 -7.15493e-14 3.29237e-16 -1.19271e-15 -1.1692e-12 -3.31175e-13 1.90833e-14 -1.33182e-11 4.32133e-13 -4.45278e-14 -3.14272e-11 2.19986e-13 -7.31528e-14 -5.42678e-11 3.84847e-13 -1.16885e-13 -3.14354e-11 2.21844e-13 -6.67917e-14 -7.73091 5.47488 -0.417314 -3.14294e-11 2.20154e-13 -7.63333e-14 -2.90554 0.965183 -0.102902 -3.14367e-11 2.20651e-13 -7.23576e-14 -10.2786 0.731801 -0.0259123 -3.14217e-11 2.21049e-13 -7.95139e-14 -2.22167 -0.733487 0.20892 -2.03217e-16 0.0 -3.88251e-19 1.24878 -5.45298 -0.109162 6.94878e-05 4.32235 0.0238825 -0.510634 1.12951 0.0812296 2.03217e-16 0.0 3.88251e-19 0.249632 -1.91924 0.0129238 0.00928394 -2.07855 0.0766868 0.496295 3.99654 -0.137951
-153.188 82.3903 4.89043 175.768 28.5438 -167.05 3.89051 -6.32313 0.579672 -0.521909 3.37904 0.165695 2.4213 0.354311 2.84337 -3.40587 1.7228 5.71448 -0.0 0.0 0.0 -0.0 0.0 0.0 5.16141e-14 6.75632e-14 -2.2115e-13 21.0531 29.2667 14.785 -23.7172 -21.5819 14.7458 0.00464906 -1.51276 -0.212337 -3.02476e-10 7.85876e-10 -1.57997e-09 -5.15428e-10 1.37148e-09 -2.73149e-09 -3.02471e-10 7.85879e-10 -1.57998e-09 7.73091 5.47488 0.417314 -3.02477e-10 7.85877e-10 -1.57996e-09 2.90554 0.965183 0.102902 -3.02472e-10 7.85877e-10 -1.57997e-09 10.2786 0.731801 0.0259123 -3.0248e-10 7.85879e-10 -1.57996e-09 2.22167 -0.733487 -0.20892 5.16618e-14 6.7568e-14 -2.21438e-13 -20.5736 21.1552 -7.85944 21.4377 -19.2731 -15.0906 -0.192632 -9.76258 1.30122 -7.27302e-10 1.96459e-10 -1.12858e-10 -1.25159e-09 3.2206e-10 -2.14368e-10 -7.27309e-10 1.96461e-10 -1.12854e-10 -7.73091 5.47488 -0.417314 -7.27303e-10 1.96459e-10 -1.12863e-10 -2.90554 0.965183 -0.102902 -7.27311e-10 1.9646e-10 -1.12859e-10 -10.2786 0.731801 -0.0259123 -7.27296e-10 1.9646e-10 -1.12868e-10 -2.22167 -0.733487 0.20892 -2.03217e-16 0.0 -3.88251e-19 2.06687 -10.3247 -1.72085 0.0615106 10.6086 0.207236 -1.92075 -7.24429 -8.57196 2.03217e-16 0.0 3.88251e-19 3.25538 -11.0697 3.79239 -0.00824952 10.6673 -0.105112 0.706711 3.07972 3.70224
-153.113 82.3853 4.78392 175.945 28.9068 -167.065 7.1019 -13.0079 1.18296 -1.37414 6.95556 0.291306 4.93889 0.72739 5.84699 -7.37652 3.48915 11.7696 -0.0 0.0 0.0 -0.0 0.0 0.0 1.11139e-13 1.42e-13 -4.61684e-13 18.5696 52.1629 46.592 -34.303 -39.1707 37.5048 -0.00264022 -3.10889 -0.436878 -5.9792e-10 1.6361e-09 -3.28696e-09 -1.01818e-09 2.8552e-09 -5.68256e-09 -5.97918e-10 1.6361e-09 -3.28698e-09 7.73091 5.47488 0.417314 -5.97921e-10 1.6361e-09 -3.28696e-09 2.90554 0.965183 0.102902 -5.97916e-10 1.6361e-09 -3.28696e-09 10.2786 0.731801 0.0259123 -5.97924e-10 1.63611e-09 -3.28696e-09 2.22167 -0.733487 -0.20892 1.11128e-13 1.4201e-13 -4.61963e-13 -34.1459 42.0274 -20.4906 31.5736 -34.8763 -36.576 0.114153 -20.0715 2.8094 -1.48778e-09 4.02483e-10 -2.46614e-10 -2.55975e-09 6.59024e-10 -4.66664e-10 -1.48778e-09 4.02484e-10 -2.46612e-10 -7.73091 5.47488 -0.417314 -1.48778e-09 4.02482e-10 -2.46621e-10 -2.90554 0.965183 -0.102902 -1.48779e-09 4.02482e-10 -2.46616e-10 -10.2786 0.731801 -0.0259123 -1.48777e-09 4.02482e-10 -2.46627e-10 -2.22167 -0.733487 0.20892 -2.03217e-16 0.0 -3.88251e-19 2.63042 -15.4681 -3.48196 0.0807422 17.2597 0.412665 -6.22315 -15.5033 -18.2876 2.03217e-16 0.0 3.88251e-19 7.82496 -20.59 8.20228 0.0679962 24.1476 -0.321324 1.06036 2.13088 7.77277
-153.124 82.4149 4.64891 175.668 29.4107 -167.148 10.0863 -18.9532 1.76992 -2.15148 10.146 0.408521 7.15882 1.05247 8.53141 -11.2347 4.96305 17.2022 -0.0 0.0 0.0 -0.0 0.0 0.0 1.61703e-13 2.02641e-13 -6.63749e-13 -5.24826 51.4105 90.363 -30.9364 -43.8356 65.6228 -0.0197796 -4.53802 -0.638791 -8.44584e-10 2.35725e-09 -4.73975e-09 -1.43775e-09 4.11378e-09 -8.19419e-09 -8.44584e-10 2.35725e-09 -4.73976e-09 7.73091 5.47488 0.417314 -8.44586e-10 2.35725e-09 -4.73974e-09 2.90554 0.965183 0.102902 -8.4458e-10 2.35725e-09 -4.73975e-09 10.2786 0.731801 0.0259123 -8.44589e-10 2.35725e-09 -4.73974e-09 2.22167 -0.733487 -0.20892 1.61642e-13 2.02655e-13 -6.64017e-13 -32.7576 56.4661 -42.6508 30.305 -39.4119 -61.3326 0.915896 -29.2228 4.40918 -2.11905e-09 5.88938e-10 -3.38428e-10 -3.64623e-09 9.65412e-10 -6.42869e-10 -2.11906e-09 5.88939e-10 -3.38428e-10 -7.73091 5.47488 -0.417314 -2.11905e-09 5.88937e-10 -3.38437e-10 -2.90554 0.965183 -0.102902 -2.11906e-09 5.88937e-10 -3.38432e-10 -10.2786 0.731801 -0.0259123 -2.11905e-09 5.88937e-10 -3.38444e-10 -2.22167 -0.733487 0.20892 -2.03217e-16 0.0 -3.88251e-19 2.83319 -20.0064 -5.17464 0.0539762 23.1801 0.612934 -12.5121 -21.7131 -27.7941 2.03217e-16 0.0 3.88251e-19 13.3035 -28.8342 12.7407 0.242343 36.1578 -0.573651 1.49491 1.24052 11.3686
